<?xml version="1.0" encoding="utf-8"?>
<!-- Generator: Adobe Illustrator 18.1.1, SVG Export Plug-In . SVG Version: 6.00 Build 0)  -->
<svg version="1.1" id="Layer_1" xmlns="http://www.w3.org/2000/svg" xmlns:xlink="http://www.w3.org/1999/xlink" x="0px" y="0px"
	 viewBox="0 0 272.2 79.2" enable-background="new 0 0 272.2 79.2" xml:space="preserve">
<g>
	<g>
		<g>
			<path fill="#D1353D" d="M30.6,3.6H8.2C7,3.6,6,4.6,6,5.8v22.4C9.7,16.5,18.9,7.3,30.6,3.6z"/>
			<path fill="#D1353D" d="M78,28.2V5.8c0-1.2-1-2.2-2.2-2.2H53.4C65.1,7.3,74.3,16.5,78,28.2z"/>
			<path fill="#D1353D" d="M6,51v22.4c0,1.2,1,2.2,2.2,2.2h22.4C18.9,71.9,9.7,62.7,6,51z"/>
			<path fill="#D1353D" d="M53.4,75.6h22.4c1.2,0,2.2-1,2.2-2.2V51C74.3,62.7,65.1,71.9,53.4,75.6z"/>
		</g>
		<g>
			<path fill="#D1353D" d="M66.7,39.6C66.7,26,55.6,14.9,42,14.9c-13.6,0-24.7,11.1-24.7,24.7c0,11.8,8.3,21.7,19.4,24.1v-22
				c0-1.2,0.9-2.1,2.1-2.1h6.3c1.2,0,2.1,0.9,2.1,2.1v22C58.3,61.3,66.7,51.4,66.7,39.6z"/>
		</g>
	</g>
	<g>
		<path d="M85.2,29.5c0-2.9,0.5-5.5,1.4-7.8c0.9-2.3,2.2-4.3,3.9-5.9c1.7-1.6,3.7-2.9,6.1-3.7c2.4-0.9,5-1.3,7.8-1.3
			c2.4,0,4.7,0.4,6.8,1.2c2.2,0.8,4,1.9,5.6,3.3c1.6,1.4,2.9,3.2,3.8,5.2c0.9,2,1.4,4.3,1.4,6.8c0,2.9-0.5,5.5-1.4,7.9
			c-0.9,2.3-2.2,4.4-3.9,6c-1.7,1.7-3.7,3-6,3.9c-2.4,0.9-5,1.4-7.9,1.4c-2.5,0-4.9-0.4-7.1-1.1c-2.2-0.8-4-1.9-5.6-3.3
			c-1.6-1.4-2.8-3.2-3.7-5.3C85.6,34.5,85.2,32.1,85.2,29.5z M91.7,26.7c0,1.9,0.2,3.9,0.6,5.9c0.4,2,1.1,3.9,2,5.5
			c1,1.7,2.2,3,3.8,4.1c1.6,1.1,3.5,1.6,5.8,1.6c2.1,0,3.8-0.4,5.3-1.2c1.5-0.8,2.7-1.9,3.6-3.2c1-1.3,1.7-2.9,2.1-4.6
			s0.7-3.5,0.7-5.3c0-2-0.3-3.9-0.8-5.9c-0.5-1.9-1.3-3.7-2.4-5.2c-1.1-1.5-2.4-2.8-4.1-3.7c-1.6-1-3.6-1.4-5.8-1.4
			c-2.1,0-3.8,0.4-5.2,1.1C96,15,94.9,16,94,17.2c-0.8,1.2-1.4,2.7-1.8,4.3C91.9,23.2,91.7,24.9,91.7,26.7z"/>
		<path d="M133.6,26.4c-0.8,0-1.4,0.1-1.7,0.3c-0.3,0.2-0.5,0.5-0.6,0.9c-0.1,0.4-0.1,0.7-0.1,1.1c0,0.4-0.1,0.8-0.2,1.1
			c-0.2,0.4-0.5,0.7-1,0.9c-0.5,0.2-1.3,0.3-2.3,0.3c-0.4,0-0.8-0.1-1.1-0.2c-0.3-0.2-0.5-0.5-0.5-0.9c0-1,0.3-1.9,1-2.6
			c0.7-0.7,1.5-1.3,2.5-1.7c1-0.4,2-0.8,3.1-1c1.1-0.2,2-0.3,2.8-0.3c2.3,0,4.1,0.4,5.2,1.2c1.1,0.8,1.9,1.9,2.3,3.2
			c0.4,1.3,0.6,2.8,0.6,4.5c0,1.7-0.1,3.4-0.1,5.1c0,0.4,0,0.9,0,1.5c0,0.6,0,1.1,0.1,1.6c0.1,0.5,0.3,0.9,0.5,1.3
			c0.3,0.4,0.7,0.5,1.3,0.5c0.2,0,0.3,0,0.5,0c0.1,0,0.3,0,0.5,0c0.2,0,0.4,0,0.6,0.1c0.2,0.1,0.2,0.2,0.2,0.5
			c0,0.3-0.2,0.6-0.5,0.9c-0.4,0.3-0.8,0.6-1.3,0.8c-0.5,0.2-1,0.4-1.5,0.6c-0.5,0.1-0.9,0.2-1.1,0.2c-1,0-1.7-0.3-2.3-0.9
			c-0.6-0.6-1.2-1.2-1.7-2c-1.3,0.8-2.6,1.4-3.9,2c-1.3,0.6-2.7,0.9-4.3,0.9c-1.6,0-2.8-0.4-3.5-1.2c-0.7-0.8-1.1-2-1.1-3.6
			c0-1.5,0.4-2.7,1.3-3.7c0.8-0.9,1.9-1.7,3.1-2.2c1.2-0.6,2.5-1,3.9-1.3c1.4-0.3,2.7-0.6,3.8-0.9c0-0.8-0.1-1.5-0.1-2.4
			c-0.1-0.8-0.2-1.6-0.5-2.3c-0.3-0.7-0.7-1.3-1.2-1.7C135.4,26.6,134.6,26.4,133.6,26.4z M137.9,36.9c0-0.2,0-0.5-0.1-0.9
			c-0.1-0.4-0.2-0.6-0.5-0.6c-0.6,0-1.2,0.1-1.8,0.4c-0.7,0.2-1.3,0.6-1.9,1c-0.6,0.4-1.1,0.9-1.5,1.4c-0.4,0.6-0.6,1.1-0.6,1.8
			c0,0.8,0.2,1.6,0.7,2.2c0.5,0.6,1.2,0.9,2.1,0.9c0.4,0,0.8-0.1,1.2-0.2c0.4-0.1,0.8-0.3,1.2-0.5c0.4-0.2,0.7-0.5,0.9-0.8
			c0.2-0.3,0.4-0.7,0.4-1.1V36.9z"/>
		<path d="M150.4,39.1c0-0.3,0.1-0.5,0.2-0.7c0.1-0.2,0.3-0.3,0.6-0.3c0.4,0,0.7,0.3,1,1c0.3,0.6,0.7,1.3,1.2,2.1
			c0.5,0.8,1.1,1.5,1.8,2.1c0.7,0.6,1.6,1,2.8,1c0.4,0,0.9-0.1,1.3-0.2c0.5-0.1,0.9-0.3,1.3-0.6c0.4-0.2,0.7-0.6,1-0.9
			c0.3-0.4,0.4-0.8,0.4-1.3c0-0.8-0.3-1.4-0.9-1.8c-0.6-0.5-1.3-0.9-2.1-1.2c-0.8-0.3-1.8-0.7-2.8-1c-1-0.3-1.9-0.7-2.8-1.3
			c-0.8-0.5-1.5-1.2-2.1-1.9c-0.6-0.8-0.9-1.8-0.9-3.1c0-1.2,0.3-2.2,0.8-3c0.5-0.8,1.2-1.5,2-2c0.8-0.5,1.7-0.9,2.8-1.1
			c1-0.2,2-0.3,3.1-0.3c1.1,0,2.1,0,2.8,0.1c0.7,0.1,1.3,0.3,1.7,0.6c0.4,0.3,0.7,0.8,0.9,1.5c0.2,0.7,0.2,1.6,0.2,2.9
			c0,0.2,0,0.5-0.1,0.7c-0.1,0.2-0.3,0.3-0.6,0.3c-0.3,0-0.6-0.2-0.9-0.6c-0.3-0.4-0.7-0.9-1.1-1.4c-0.4-0.5-1-0.9-1.7-1.4
			c-0.7-0.4-1.5-0.6-2.5-0.6c-0.3,0-0.7,0-1.1,0.1c-0.4,0.1-0.7,0.2-1.1,0.4c-0.3,0.2-0.6,0.4-0.8,0.7c-0.2,0.3-0.3,0.6-0.3,1
			c0,0.7,0.3,1.2,0.9,1.7c0.6,0.4,1.3,0.8,2.1,1.1c0.8,0.3,1.8,0.6,2.8,0.9c1,0.3,1.9,0.7,2.8,1.3c0.8,0.5,1.5,1.2,2.1,2.1
			c0.6,0.9,0.9,2,0.9,3.3c0,1.2-0.2,2.2-0.7,3.1c-0.4,0.9-1,1.7-1.8,2.3c-0.7,0.6-1.6,1.1-2.6,1.5c-1,0.3-2,0.5-3.1,0.5
			c-0.9,0-1.7-0.1-2.5-0.2c-0.8-0.1-1.7-0.3-2.5-0.5c-0.5-0.1-0.9-0.2-1.2-0.2c-0.3,0-0.6-0.1-0.8-0.2c-0.2-0.1-0.3-0.3-0.4-0.5
			c-0.1-0.3-0.1-0.7-0.1-1.2c0-0.8,0-1.5,0-2.2C150.4,40.5,150.4,39.8,150.4,39.1z"/>
		<path d="M168.9,28c0-0.4,0.1-0.6,0.3-0.7c0.2-0.1,0.4-0.2,0.7-0.3c1.2-0.3,2.3-0.7,3.4-1c1.1-0.4,2.2-0.8,3.3-1.4
			c0.1-0.1,0.3-0.1,0.4-0.2c0.1-0.1,0.3-0.1,0.4-0.1c0.4,0,0.6,0.2,0.6,0.6c0,0.9,0,1.7-0.1,2.6c-0.1,0.9-0.1,1.7-0.1,2.6v8.6
			c0,0.3,0,0.6,0,1c0,0.4,0,0.9,0.1,1.3c0,0.4,0.1,0.9,0.2,1.3c0.1,0.4,0.3,0.7,0.5,0.9c0.2,0.2,0.4,0.3,0.7,0.4
			c0.3,0.1,0.6,0.2,0.9,0.3c0.3,0.1,0.6,0.2,0.8,0.3c0.2,0.1,0.4,0.3,0.5,0.5V45c0,0.4-0.1,0.6-0.3,0.7c-0.2,0.1-0.5,0.2-0.8,0.2
			c-0.8,0-1.5,0-2.2-0.1c-0.7-0.1-1.4-0.1-2.2-0.1c-1,0-2,0-2.9,0.1c-1,0.1-1.9,0.1-2.9,0.1c-0.3,0-0.5-0.1-0.8-0.2
			c-0.3-0.1-0.4-0.3-0.4-0.7c0-0.3,0.1-0.5,0.3-0.6c0.2-0.1,0.5-0.3,0.8-0.4c0.3-0.1,0.6-0.2,0.9-0.4c0.3-0.1,0.6-0.3,0.8-0.6
			c0.1-0.2,0.2-0.5,0.3-0.9c0.1-0.4,0.1-0.8,0.1-1.2c0-0.4,0-0.9,0-1.3c0-0.4,0-0.7,0-1c0-1.4,0-2.7,0-4.1c0-1.3,0-2.7-0.1-4.1
			c0-0.6-0.2-1.1-0.6-1.3c-0.3-0.2-0.7-0.4-1.1-0.5c-0.4-0.1-0.8-0.2-1.1-0.2C169.1,28.4,168.9,28.3,168.9,28z M171.4,16.7
			c0-0.2,0.1-0.6,0.4-1c0.3-0.5,0.6-0.9,1-1.4c0.4-0.5,0.8-0.9,1.2-1.2c0.4-0.4,0.7-0.5,1-0.5c0.2,0,0.5,0.2,0.9,0.5
			c0.4,0.4,0.8,0.8,1.2,1.2c0.4,0.5,0.7,0.9,1,1.4c0.3,0.4,0.4,0.8,0.4,1c0,0.2-0.2,0.5-0.5,1c-0.3,0.4-0.7,0.9-1.1,1.4
			c-0.4,0.5-0.8,0.9-1.3,1.2c-0.4,0.3-0.7,0.5-0.9,0.5c-0.2,0-0.5-0.2-0.9-0.5c-0.4-0.3-0.8-0.7-1.1-1.2c-0.4-0.4-0.7-0.9-1-1.3
			C171.6,17.3,171.4,17,171.4,16.7z"/>
		<path d="M184.5,39.1c0-0.3,0.1-0.5,0.2-0.7c0.1-0.2,0.3-0.3,0.6-0.3c0.4,0,0.7,0.3,1,1c0.3,0.6,0.7,1.3,1.2,2.1
			c0.5,0.8,1.1,1.5,1.8,2.1c0.7,0.6,1.6,1,2.8,1c0.4,0,0.9-0.1,1.3-0.2c0.5-0.1,0.9-0.3,1.3-0.6c0.4-0.2,0.7-0.6,1-0.9
			c0.3-0.4,0.4-0.8,0.4-1.3c0-0.8-0.3-1.4-0.9-1.8c-0.6-0.5-1.3-0.9-2.1-1.2c-0.8-0.3-1.8-0.7-2.8-1c-1-0.3-1.9-0.7-2.8-1.3
			c-0.8-0.5-1.5-1.2-2.1-1.9c-0.6-0.8-0.9-1.8-0.9-3.1c0-1.2,0.3-2.2,0.8-3c0.5-0.8,1.2-1.5,2-2c0.8-0.5,1.7-0.9,2.8-1.1
			c1-0.2,2-0.3,3.1-0.3c1.1,0,2.1,0,2.8,0.1c0.7,0.1,1.3,0.3,1.7,0.6c0.4,0.3,0.7,0.8,0.9,1.5c0.2,0.7,0.2,1.6,0.2,2.9
			c0,0.2,0,0.5-0.1,0.7c-0.1,0.2-0.3,0.3-0.6,0.3c-0.3,0-0.6-0.2-0.9-0.6c-0.3-0.4-0.7-0.9-1.1-1.4c-0.4-0.5-1-0.9-1.7-1.4
			c-0.7-0.4-1.5-0.6-2.5-0.6c-0.3,0-0.7,0-1.1,0.1c-0.4,0.1-0.7,0.2-1.1,0.4c-0.3,0.2-0.6,0.4-0.8,0.7c-0.2,0.3-0.3,0.6-0.3,1
			c0,0.7,0.3,1.2,0.9,1.7c0.6,0.4,1.3,0.8,2.1,1.1c0.8,0.3,1.8,0.6,2.8,0.9c1,0.3,1.9,0.7,2.8,1.3c0.8,0.5,1.5,1.2,2.1,2.1
			c0.6,0.9,0.9,2,0.9,3.3c0,1.2-0.2,2.2-0.7,3.1c-0.4,0.9-1,1.7-1.8,2.3c-0.7,0.6-1.6,1.1-2.6,1.5c-1,0.3-2,0.5-3.1,0.5
			c-0.9,0-1.7-0.1-2.5-0.2c-0.8-0.1-1.7-0.3-2.5-0.5c-0.5-0.1-0.9-0.2-1.2-0.2c-0.3,0-0.6-0.1-0.8-0.2c-0.2-0.1-0.3-0.3-0.4-0.5
			c-0.1-0.3-0.1-0.7-0.1-1.2c0-0.8,0-1.5,0-2.2C184.5,40.5,184.5,39.8,184.5,39.1z"/>
		<path d="M209.4,11.9c0-0.4,0.2-0.7,0.6-0.7c0.4-0.1,0.8-0.1,1.1-0.1c1.1,0,2.3,0,3.5,0.1c1.2,0.1,2.3,0.1,3.5,0.1
			c1.1,0,2.1,0,3.2-0.1c1.1-0.1,2.1-0.1,3.2-0.1c0.3,0,0.5,0.1,0.7,0.2c0.2,0.1,0.3,0.3,0.3,0.7c0,0.2-0.1,0.4-0.3,0.6
			c-0.2,0.2-0.4,0.3-0.7,0.5c-0.3,0.1-0.5,0.3-0.8,0.4c-0.3,0.1-0.5,0.2-0.6,0.3c-0.6,0.5-1,1.1-1.1,1.8c-0.1,0.7-0.2,1.5-0.2,2.1
			v20.6c0,0.6,0,1.2,0.1,2c0.1,0.8,0.3,1.5,0.6,1.9c0.4,0.6,0.8,1,1.4,1.3c0.6,0.3,1.2,0.5,1.7,0.6c0.6,0.1,1.1,0.2,1.5,0.3
			c0.4,0.1,0.6,0.3,0.6,0.7c0,0.4-0.1,0.6-0.4,0.7c-0.3,0.1-0.5,0.2-0.8,0.2c-1.3,0-2.6,0-3.8-0.1c-1.3-0.1-2.6-0.1-3.9-0.1
			c-1,0-2.1,0-3.1,0.1c-1,0.1-2,0.1-3.1,0.1c-0.3,0-0.5-0.1-0.7-0.2c-0.2-0.1-0.3-0.3-0.3-0.6c0-0.2,0.1-0.4,0.2-0.5
			c0.1-0.1,0.3-0.3,0.5-0.4c0.2-0.1,0.4-0.2,0.6-0.3c0.2-0.1,0.4-0.2,0.5-0.2c0.9-0.4,1.4-1,1.6-1.7c0.2-0.7,0.3-1.5,0.3-2.4V18.7
			c0-0.6,0-1.3-0.1-2c-0.1-0.7-0.3-1.4-0.6-1.9c-0.4-0.6-0.8-1-1.4-1.3c-0.6-0.3-1.2-0.5-1.7-0.6c-0.6-0.1-1-0.3-1.5-0.4
			C209.6,12.4,209.4,12.2,209.4,11.9z"/>
		<path d="M232.3,11c1.4,0,2.9,0,4.3,0.1c1.4,0.1,2.8,0.1,4.3,0.1H254c1.4,0,2.9,0,4.3-0.1c1.4-0.1,2.8-0.1,4.3-0.1
			c0.9,0,1.4,0.4,1.5,1.3l0.8,7.5c0,0.3-0.1,0.5-0.3,0.6c-0.2,0.2-0.5,0.2-0.7,0.2c-0.5,0-0.8-0.3-1-0.9c-0.2-0.6-0.5-1.2-0.7-2
			c-0.2-0.8-0.6-1.5-1-2.2c-0.4-0.7-1-1.2-1.8-1.5c-0.7-0.2-1.4-0.4-2.3-0.4c-0.9,0-1.7,0-2.4,0c-0.4,0-0.9,0-1.3-0.1
			c-0.5,0-0.9,0-1.3,0c-0.4,0.1-0.7,0.2-1,0.5c-0.2,0.2-0.4,0.7-0.4,1.3c0,0.6,0,1.2,0,1.8c0,0.6,0,1.2,0,1.8l0.1,19.9
			c0,0.6,0.1,1.2,0.2,2c0.1,0.8,0.4,1.3,0.7,1.8c0.2,0.3,0.6,0.5,1.2,0.7c0.5,0.2,1.1,0.4,1.7,0.5c0.6,0.2,1.1,0.4,1.5,0.6
			c0.4,0.2,0.6,0.4,0.6,0.7c0,0.5-0.2,0.8-0.7,0.8c-1.5,0-2.9,0-4.3-0.1c-1.4-0.1-2.8-0.1-4.3-0.1c-1.4,0-2.7,0-4.1,0.1
			c-1.4,0.1-2.7,0.1-4.1,0.1c-0.2,0-0.4-0.1-0.5-0.2c-0.1-0.2-0.2-0.4-0.2-0.6c0-0.2,0.2-0.4,0.6-0.6c0.4-0.2,0.9-0.4,1.5-0.6
			c0.6-0.2,1.1-0.4,1.7-0.6c0.5-0.2,0.9-0.4,1.1-0.7c0.2-0.3,0.4-0.6,0.6-1.1c0.1-0.5,0.2-1,0.3-1.5c0-0.5,0.1-1,0.1-1.5
			c0-0.5,0-0.9,0-1.3V15.5c0-0.7-0.2-1.2-0.7-1.4c-0.4-0.2-1-0.3-1.6-0.3c-0.5,0-1.1,0-1.8,0c-0.7,0-1.4,0-2.2,0.1
			c-0.7,0.1-1.4,0.2-2.1,0.3c-0.7,0.2-1.2,0.4-1.6,0.7c-0.4,0.3-0.7,0.8-1,1.5c-0.2,0.7-0.5,1.3-0.7,2c-0.2,0.7-0.4,1.2-0.7,1.7
			c-0.2,0.5-0.6,0.7-1,0.7c-0.3,0-0.5-0.1-0.7-0.2c-0.2-0.1-0.3-0.4-0.3-0.7c0-1.2,0.1-2.5,0.3-3.8c0.2-1.3,0.4-2.5,0.5-3.8
			c0.1-0.5,0.2-0.8,0.4-1C231.4,11.1,231.8,11,232.3,11z"/>
	</g>
	<g>
		<rect x="85.2" y="50.8" fill="#D1353D" width="179.7" height="1.3"/>
	</g>
	<g>
		<path d="M92.5,64.4h-4.2l-0.7,1.7c-0.2,0.4-0.3,0.7-0.3,0.9c0,0.2,0.1,0.3,0.2,0.4c0.2,0.1,0.5,0.2,1,0.2V68h-3.4v-0.3
			c0.5-0.1,0.7-0.2,0.9-0.3c0.3-0.3,0.6-0.8,0.9-1.6l3.8-8.9h0.3l3.8,9c0.3,0.7,0.6,1.2,0.8,1.4c0.2,0.2,0.6,0.3,1,0.4V68h-4.3v-0.3
			c0.4,0,0.7-0.1,0.9-0.2c0.1-0.1,0.2-0.3,0.2-0.5c0-0.2-0.1-0.6-0.3-1.1L92.5,64.4z M92.3,63.8l-1.8-4.4l-1.9,4.4H92.3z"/>
		<path d="M110.8,56.9l0.2,3.7h-0.2c-0.3-1.1-0.8-1.9-1.4-2.4c-0.6-0.5-1.3-0.7-2.2-0.7c-0.7,0-1.4,0.2-2,0.6
			c-0.6,0.4-1,0.9-1.4,1.7c-0.3,0.8-0.5,1.8-0.5,3c0,1,0.2,1.8,0.5,2.5c0.3,0.7,0.8,1.3,1.4,1.7c0.6,0.4,1.4,0.6,2.2,0.6
			c0.7,0,1.3-0.2,1.9-0.5s1.1-0.9,1.8-1.8l0.2,0.2c-0.5,1-1.2,1.7-1.9,2.1c-0.7,0.4-1.6,0.7-2.6,0.7c-1.8,0-3.2-0.7-4.2-2
			c-0.7-1-1.1-2.2-1.1-3.5c0-1.1,0.2-2.1,0.7-3c0.5-0.9,1.2-1.6,2-2.1c0.9-0.5,1.8-0.7,2.8-0.7c0.8,0,1.6,0.2,2.3,0.6
			c0.2,0.1,0.4,0.2,0.5,0.2c0.1,0,0.3,0,0.4-0.1c0.1-0.1,0.2-0.3,0.3-0.6H110.8z"/>
		<path d="M119.3,62.2h5v-3.1c0-0.5,0-0.9-0.1-1.1c-0.1-0.1-0.2-0.2-0.3-0.3c-0.2-0.1-0.5-0.2-0.7-0.2h-0.4v-0.3h4.6v0.3H127
			c-0.3,0-0.5,0.1-0.7,0.2c-0.2,0.1-0.3,0.2-0.3,0.4c-0.1,0.2-0.1,0.5-0.1,1.1v7c0,0.5,0,0.9,0.1,1.1c0.1,0.1,0.2,0.2,0.3,0.3
			c0.2,0.1,0.5,0.2,0.7,0.2h0.4V68h-4.6v-0.3h0.4c0.4,0,0.8-0.1,1-0.4c0.1-0.2,0.2-0.6,0.2-1.2v-3.3h-5v3.3c0,0.5,0,0.9,0.1,1.1
			c0.1,0.1,0.2,0.2,0.3,0.3c0.2,0.1,0.5,0.2,0.7,0.2h0.4V68h-4.6v-0.3h0.4c0.4,0,0.8-0.1,1-0.4c0.1-0.2,0.2-0.6,0.2-1.2v-7
			c0-0.5,0-0.9-0.1-1.1c-0.1-0.1-0.2-0.2-0.3-0.3c-0.2-0.1-0.5-0.2-0.7-0.2h-0.4v-0.3h4.6v0.3h-0.4c-0.3,0-0.5,0.1-0.7,0.2
			c-0.2,0.1-0.3,0.2-0.3,0.4c-0.1,0.2-0.1,0.5-0.1,1.1V62.2z"/>
		<path d="M136.9,67.7V68h-4.6v-0.3h0.4c0.4,0,0.8-0.1,1-0.4c0.1-0.2,0.2-0.6,0.2-1.2v-7c0-0.5,0-0.9-0.1-1.1
			c-0.1-0.1-0.2-0.2-0.3-0.3c-0.2-0.1-0.5-0.2-0.7-0.2h-0.4v-0.3h4.6v0.3h-0.4c-0.4,0-0.8,0.1-1,0.4c-0.1,0.2-0.2,0.6-0.2,1.2v7
			c0,0.5,0,0.9,0.1,1.1c0.1,0.1,0.2,0.2,0.3,0.3c0.2,0.1,0.5,0.2,0.7,0.2H136.9z"/>
		<path d="M144.8,57.8V62h2.4c0.6,0,1-0.1,1.2-0.3c0.3-0.2,0.4-0.7,0.5-1.3h0.3v3.8h-0.3c-0.1-0.5-0.1-0.9-0.2-1
			c-0.1-0.2-0.2-0.3-0.5-0.4c-0.2-0.1-0.6-0.2-1-0.2h-2.4v3.6c0,0.5,0,0.8,0.1,0.9c0,0.1,0.1,0.2,0.2,0.2c0.1,0.1,0.3,0.1,0.6,0.1
			h1.8c0.6,0,1.1,0,1.3-0.1c0.3-0.1,0.5-0.2,0.8-0.5c0.3-0.3,0.7-0.8,1-1.5h0.3L150,68h-8.3v-0.3h0.4c0.3,0,0.5-0.1,0.7-0.2
			c0.2-0.1,0.3-0.2,0.3-0.4c0.1-0.2,0.1-0.5,0.1-1v-7c0-0.7-0.1-1.1-0.2-1.3c-0.2-0.2-0.5-0.3-1-0.3h-0.4v-0.3h8.3l0.1,2.4h-0.3
			c-0.1-0.6-0.2-1-0.4-1.2c-0.1-0.2-0.3-0.4-0.6-0.5c-0.2-0.1-0.6-0.1-1.1-0.1H144.8z"/>
		<path d="M167,57.2v0.3c-0.4,0.1-0.7,0.2-0.9,0.4c-0.3,0.3-0.5,0.7-0.8,1.2l-3.8,9.2h-0.3l-4.1-9.3c-0.2-0.5-0.4-0.8-0.4-0.9
			c-0.1-0.2-0.3-0.3-0.5-0.4c-0.2-0.1-0.5-0.2-0.8-0.2v-0.3h4.4v0.3c-0.5,0-0.8,0.1-1,0.3c-0.1,0.1-0.2,0.3-0.2,0.5
			c0,0.3,0.1,0.7,0.4,1.3l2.8,6.4l2.6-6.3c0.3-0.6,0.4-1,0.4-1.3c0-0.2-0.1-0.3-0.2-0.4c-0.2-0.1-0.4-0.2-0.8-0.3c0,0-0.1,0-0.1,0
			v-0.3H167z"/>
		<path d="M174.7,57.8V62h2.4c0.6,0,1-0.1,1.2-0.3c0.3-0.2,0.4-0.7,0.5-1.3h0.3v3.8h-0.3c-0.1-0.5-0.1-0.9-0.2-1
			c-0.1-0.2-0.2-0.3-0.5-0.4c-0.2-0.1-0.6-0.2-1-0.2h-2.4v3.6c0,0.5,0,0.8,0.1,0.9c0,0.1,0.1,0.2,0.2,0.2c0.1,0.1,0.3,0.1,0.6,0.1
			h1.8c0.6,0,1.1,0,1.3-0.1c0.3-0.1,0.5-0.2,0.8-0.5c0.3-0.3,0.7-0.8,1-1.5h0.3L180,68h-8.3v-0.3h0.4c0.3,0,0.5-0.1,0.7-0.2
			c0.2-0.1,0.3-0.2,0.3-0.4c0.1-0.2,0.1-0.5,0.1-1v-7c0-0.7-0.1-1.1-0.2-1.3c-0.2-0.2-0.5-0.3-1-0.3h-0.4v-0.3h8.3l0.1,2.4h-0.3
			c-0.1-0.6-0.2-1-0.4-1.2c-0.1-0.2-0.3-0.4-0.6-0.5c-0.2-0.1-0.6-0.1-1.1-0.1H174.7z"/>
		<path d="M205.1,57.2v0.3c-0.4,0.1-0.7,0.2-0.9,0.4c-0.3,0.3-0.5,0.7-0.8,1.2l-3.8,9.2h-0.3l-4.1-9.3c-0.2-0.5-0.4-0.8-0.4-0.9
			c-0.1-0.2-0.3-0.3-0.5-0.4c-0.2-0.1-0.5-0.2-0.8-0.2v-0.3h4.4v0.3c-0.5,0-0.8,0.1-1,0.3c-0.1,0.1-0.2,0.3-0.2,0.5
			c0,0.3,0.1,0.7,0.4,1.3l2.7,6.4l2.6-6.3c0.3-0.6,0.4-1,0.4-1.3c0-0.2-0.1-0.3-0.2-0.4c-0.2-0.1-0.4-0.2-0.8-0.3c0,0-0.1,0-0.1,0
			v-0.3H205.1z"/>
		<path d="M216.9,64.4h-4.2l-0.7,1.7c-0.2,0.4-0.3,0.7-0.3,0.9c0,0.2,0.1,0.3,0.2,0.4c0.2,0.1,0.5,0.2,1,0.2V68h-3.4v-0.3
			c0.5-0.1,0.7-0.2,0.9-0.3c0.3-0.3,0.6-0.8,0.9-1.6l3.8-8.9h0.3l3.8,9c0.3,0.7,0.6,1.2,0.8,1.4s0.6,0.3,1,0.4V68h-4.3v-0.3
			c0.4,0,0.7-0.1,0.9-0.2c0.1-0.1,0.2-0.3,0.2-0.5c0-0.2-0.1-0.6-0.3-1.1L216.9,64.4z M216.7,63.8l-1.8-4.4l-1.9,4.4H216.7z"/>
		<path d="M234.7,65l0.3,0.1L234,68h-8.4v-0.3h0.4c0.5,0,0.8-0.1,1-0.4c0.1-0.2,0.2-0.6,0.2-1.2v-7c0-0.7-0.1-1.1-0.2-1.3
			c-0.2-0.2-0.5-0.4-0.9-0.4h-0.4v-0.3h4.9v0.3c-0.6,0-1,0-1.2,0.2c-0.2,0.1-0.4,0.3-0.5,0.4c-0.1,0.2-0.1,0.6-0.1,1.2v6.8
			c0,0.4,0,0.7,0.1,0.9c0.1,0.1,0.2,0.2,0.3,0.2c0.1,0.1,0.5,0.1,1.3,0.1h0.8c0.8,0,1.4-0.1,1.8-0.2c0.3-0.1,0.6-0.3,0.9-0.7
			C234.1,66.2,234.4,65.7,234.7,65z"/>
		<path d="M247.2,57.5v-0.3h3.8v0.3h-0.4c-0.4,0-0.8,0.2-1,0.5c-0.1,0.2-0.2,0.5-0.2,1.2v4.4c0,1.1-0.1,1.9-0.3,2.5
			c-0.2,0.6-0.6,1.1-1.3,1.5c-0.6,0.4-1.5,0.6-2.6,0.6c-1.2,0-2.1-0.2-2.7-0.6c-0.6-0.4-1-1-1.3-1.7c-0.2-0.5-0.3-1.4-0.3-2.7v-4.2
			c0-0.7-0.1-1.1-0.3-1.3c-0.2-0.2-0.5-0.3-0.9-0.3h-0.4v-0.3h4.7v0.3h-0.4c-0.5,0-0.8,0.1-1,0.4c-0.1,0.2-0.2,0.6-0.2,1.2v4.7
			c0,0.4,0,0.9,0.1,1.4c0.1,0.5,0.2,1,0.4,1.3c0.2,0.3,0.5,0.6,0.9,0.8c0.4,0.2,0.8,0.3,1.4,0.3c0.7,0,1.3-0.2,1.9-0.5
			c0.6-0.3,0.9-0.7,1.1-1.2c0.2-0.5,0.3-1.3,0.3-2.4v-4.4c0-0.7-0.1-1.1-0.2-1.3c-0.2-0.2-0.5-0.4-0.9-0.4H247.2z"/>
		<path d="M258.7,57.8V62h2.4c0.6,0,1-0.1,1.2-0.3c0.3-0.2,0.4-0.7,0.5-1.3h0.3v3.8h-0.3c-0.1-0.5-0.1-0.9-0.2-1
			c-0.1-0.2-0.2-0.3-0.5-0.4c-0.2-0.1-0.6-0.2-1-0.2h-2.4v3.6c0,0.5,0,0.8,0.1,0.9c0,0.1,0.1,0.2,0.2,0.2c0.1,0.1,0.3,0.1,0.6,0.1
			h1.8c0.6,0,1.1,0,1.3-0.1c0.3-0.1,0.5-0.2,0.8-0.5c0.3-0.3,0.7-0.8,1-1.5h0.3l-0.9,2.7h-8.3v-0.3h0.4c0.3,0,0.5-0.1,0.7-0.2
			c0.2-0.1,0.3-0.2,0.3-0.4c0.1-0.2,0.1-0.5,0.1-1v-7c0-0.7-0.1-1.1-0.2-1.3c-0.2-0.2-0.5-0.3-1-0.3h-0.4v-0.3h8.3l0.1,2.4h-0.3
			c-0.1-0.6-0.2-1-0.4-1.2c-0.1-0.2-0.3-0.4-0.6-0.5c-0.2-0.1-0.6-0.1-1.1-0.1H258.7z"/>
	</g>
</g>
</svg>
